<svg xmlns="http://www.w3.org/2000/svg" viewBox="0 0 32 32" style="fill:#46514F;">
    <path d="M20.5,5.5c-1.7,0-3,1.3-3,3c0,1.1,0.6,2.1,1.5,2.6V13l-3,3l-3-3v-1.9c0.9-0.5,1.5-1.5,1.5-2.6c0-1.7-1.3-3-3-3
	s-3,1.3-3,3c0,1.1,0.6,2.1,1.5,2.6v2.7l4.5,4.5v2.7c-0.9,0.5-1.5,1.5-1.5,2.6c0,1.7,1.3,3,3,3s3-1.3,3-3c0-1.1-0.6-2.1-1.5-2.6v-2.7
	l4.5-4.5v-2.7c0.9-0.5,1.5-1.5,1.5-2.6C23.5,6.8,22.2,5.5,20.5,5.5L20.5,5.5z M11.5,10.3c-1,0-1.8-0.8-1.8-1.8s0.8-1.8,1.8-1.8
	s1.8,0.8,1.8,1.8S12.5,10.3,11.5,10.3L11.5,10.3z M16,25.3c-1,0-1.8-0.8-1.8-1.8c0-1,0.8-1.8,1.8-1.8s1.8,0.8,1.8,1.8
	C17.8,24.5,17,25.3,16,25.3L16,25.3z M20.5,10.3c-1,0-1.8-0.8-1.8-1.8s0.8-1.8,1.8-1.8c1,0,1.8,0.8,1.8,1.8S21.5,10.3,20.5,10.3
	L20.5,10.3z"/>
</svg>
